# xmcd
#
# Track frame offsets:
#	150
#	11493
#	26111
#	39543
#	53841
#	64794
#	77640
#	91450
#	107273
#	121283
#	132656
#
# Disc length: 1925 seconds
# Revision: 0
# Processed by: cddbd v1.5.2PL0 Copyright (c) Steve Scherf et al.
# Submitted via: dBpowerAMP V12.0
#
DISCID=8b07830b
DTITLE=Darrell Webb Band - Lover's Leap
DYEAR=2017
DGENRE=Country
TTITLE0=Lost John
TTITLE1=If You're Thinking You Want A Stranger
TTITLE2=Lover's Leap
TTITLE3=Nothing Like A Woman To Bring You Down
TTITLE4=Always On The Move
TTITLE5=Orphan Annie
TTITLE6=Mountain Dan
TTITLE7=Daddy's Drinking Shoes
TTITLE8=I'm Going That Way
TTITLE9=Diggin'
TTITLE10=Forty Acre Blues
EXTD=
EXTT0=
EXTT1=
EXTT2=
EXTT3=
EXTT4=
EXTT5=
EXTT6=
EXTT7=
EXTT8=
EXTT9=
EXTT10=
PLAYORDER=
